<svg width="24" height="24" viewBox="0 0 24 24" fill="none" xmlns="http://www.w3.org/2000/svg">
  <path d="M10 9V5L2 12L10 19V14.1C15.06 14.1 19.83 16.22 22 21C20.1 16.1 16.21 13 10 13H8.57C8.21 13 7.87 12.91 7.57 12.76C7.27 12.61 7 12.4 6.76 12.16L6.71 12.12C6.47 11.87 6.28 11.58 6.15 11.26C6.02 10.94 6 10.59 6 10.24V10.2C6 9.83 6.08 9.46 6.24 9.12C6.4 8.78 6.61 8.47 6.86 8.24L6.9 8.19C7.13 7.96 7.4 7.77 7.68 7.63C7.95 7.49 8.26 7.41 8.58 7.39H10C10 7.39 10 7.39 10 7.39C15.07 7.39 20.05 9.61 23 14C21.07 8.06 16.31 5 10 5V9Z" fill="#092C4C"/>
</svg>
