<svg width="13" height="10" viewBox="0 0 13 10" fill="none" xmlns="http://www.w3.org/2000/svg">
  <path d="M1.5 0C0.810625 0 0.25 0.560625 0.25 1.25V8.75C0.25 9.43937 0.810625 10 1.5 10H11.5C12.1894 10 12.75 9.43937 12.75 8.75V1.25C12.75 0.560625 12.1894 0 11.5 0H1.5ZM3.5 2.5C4.05228 2.5 4.5 2.94772 4.5 3.5C4.5 4.05228 4.05228 4.5 3.5 4.5C2.94772 4.5 2.5 4.05228 2.5 3.5C2.5 2.94772 2.94772 2.5 3.5 2.5ZM6.5 2.5C7.05228 2.5 7.5 2.94772 7.5 3.5C7.5 4.05228 7.05228 4.5 6.5 4.5C5.94772 4.5 5.5 4.05228 5.5 3.5C5.5 2.94772 5.94772 2.5 6.5 2.5ZM9.5 2.5C10.0523 2.5 10.5 2.94772 10.5 3.5C10.5 4.05228 10.0523 4.5 9.5 4.5C8.94772 4.5 8.5 4.05228 8.5 3.5C8.5 2.94772 8.94772 2.5 9.5 2.5ZM2 7.5H11V8.75H2V7.5Z" fill="#637381"/>
</svg>